<?xml version="1.0" standalone="no"?>
<!DOCTYPE svg PUBLIC "-//W3C//DTD SVG 20010904//EN"
 "http://www.w3.org/TR/2001/REC-SVG-20010904/DTD/svg10.dtd">
<svg version="1.0" xmlns="http://www.w3.org/2000/svg"
 width="300.000000pt" height="300.000000pt" viewBox="0 0 300.000000 300.000000"
 preserveAspectRatio="xMidYMid meet">
<metadata>
Created by potrace 1.10, written by Peter Selinger 2001-2011
</metadata>
<g transform="translate(0.000000,300.000000) scale(0.100000,-0.100000)"
fill="#000000" stroke="none">
<path d="M860 2169 c-191 -104 -343 -272 -392 -433 -39 -129 -21 -353 33 -402
25 -23 35 -12 15 18 -28 43 -46 149 -41 243 3 48 7 98 11 109 6 21 65 143 87
182 13 23 84 104 91 104 2 0 20 16 41 35 20 20 39 34 42 31 3 -2 -10 -31 -28
-63 -45 -82 -46 -82 -64 -138 -30 -90 -37 -158 -32 -295 4 -111 9 -142 26
-174 11 -22 26 -45 32 -50 13 -12 13 -12 -18 99 -23 81 -22 267 1 353 38 141
123 283 215 360 31 25 60 50 66 54 23 20 -16 5 -85 -33z"/>
<path d="M2087 2145 c140 -125 220 -300 230 -500 4 -83 1 -128 -12 -185 -9
-41 -19 -88 -22 -105 -5 -29 -4 -29 10 -9 61 81 66 350 11 513 -17 50 -69 158
-87 180 -10 11 -6 11 18 -2 45 -23 140 -132 182 -207 71 -126 88 -297 43 -422
-14 -37 -21 -70 -17 -75 12 -11 24 13 48 90 18 56 20 86 17 170 -7 165 -58
274 -188 407 -67 68 -166 142 -249 185 -52 26 -48 17 16 -40z"/>
<path d="M1365 2064 c-16 -2 -50 -7 -73 -10 -24 -3 -41 -8 -39 -11 3 -3 -12
-34 -34 -70 -22 -35 -37 -68 -34 -74 9 -13 642 -12 650 2 4 5 1 18 -7 27 -23
26 -58 92 -58 106 0 8 -15 17 -32 20 -42 8 -333 16 -373 10z m305 -25 c0 -5
-9 -9 -20 -9 -13 0 -28 -12 -38 -30 -20 -37 -38 -42 -122 -38 -59 3 -65 5 -80
33 -9 17 -26 31 -38 33 -12 2 -22 7 -22 11 0 5 72 8 160 8 88 0 160 -3 160 -8z
m-380 -46 c0 -12 8 -14 43 -9 48 7 77 0 77 -18 0 -16 58 -45 100 -49 19 -2
-36 -5 -122 -5 -87 -1 -158 2 -158 7 0 5 12 16 26 26 14 9 23 19 20 22 -3 3
-12 0 -21 -7 -21 -17 -20 3 1 35 17 26 34 25 34 -2z m490 -32 c0 -11 -3 -11
-15 -1 -9 7 -18 10 -21 7 -3 -3 6 -13 20 -22 14 -10 26 -21 26 -26 0 -5 -55
-9 -122 -9 l-122 0 22 22 c19 19 25 21 42 10 24 -14 120 -16 120 -2 0 6 -27
10 -61 10 -52 0 -60 2 -57 18 3 14 13 17 60 15 50 -3 56 -1 62 20 l6 22 20
-25 c11 -14 20 -31 20 -39z"/>
<path d="M1290 1940 c0 -5 25 -10 55 -10 30 0 55 5 55 10 0 6 -25 10 -55 10
-30 0 -55 -4 -55 -10z"/>
<path d="M1159 1861 c6 -10 34 -28 63 -41 29 -12 65 -36 80 -52 31 -33 34 -32
16 7 -7 16 -34 37 -75 57 -35 17 -66 35 -69 40 -11 17 -25 8 -15 -11z"/>
<path d="M1789 1844 c-61 -30 -109 -72 -109 -97 0 -5 11 2 25 17 14 15 49 38
79 52 49 22 85 50 75 57 -2 2 -34 -12 -70 -29z"/>
<path d="M951 1829 c-6 -17 -11 -87 -11 -153 0 -95 3 -126 16 -144 15 -22 17
-22 35 -6 26 23 24 65 -6 124 -27 53 -34 135 -14 172 7 13 7 24 1 30 -6 6 -14
-2 -21 -23z"/>
<path d="M2046 1825 c15 -69 9 -127 -20 -179 -14 -27 -26 -58 -26 -68 0 -53
54 -81 66 -34 11 47 0 294 -15 308 -11 11 -12 7 -5 -27z"/>
<path d="M1005 1770 c-7 -23 12 -109 32 -139 11 -17 13 -35 8 -67 -6 -40 -4
-45 17 -53 32 -12 183 -20 198 -11 9 5 9 13 1 27 -10 20 -8 20 34 11 69 -15
431 -6 447 11 11 11 6 12 -32 5 -43 -7 -336 -8 -430 -1 -25 2 -61 13 -80 25
-19 12 -52 28 -73 34 -21 6 -51 27 -67 45 -34 38 -39 59 -12 48 29 -11 184
-36 190 -30 10 9 -30 32 -130 73 -89 37 -98 39 -103 22z m137 -206 c36 -19 24
-33 -22 -26 -21 3 -30 10 -30 23 0 23 12 24 52 3z"/>
<path d="M1897 1745 c-95 -40 -126 -59 -116 -70 5 -5 141 18 188 31 19 6 22 4
16 -7 -30 -52 -49 -68 -103 -87 -54 -20 -142 -83 -142 -102 0 -16 35 -19 122
-11 104 10 121 19 105 60 -9 24 -6 39 16 89 26 57 36 126 20 135 -5 3 -52 -14
-106 -38z m23 -180 c0 -20 -20 -28 -57 -23 l-28 4 35 16 c45 21 50 21 50 3z"/>
<path d="M1267 1618 c-17 -10 7 -16 88 -21 39 -2 87 -13 108 -23 36 -17 38
-17 75 0 20 10 71 21 115 24 42 2 77 9 77 13 0 5 -3 9 -7 9 -195 4 -448 3
-456 -2z"/>
<path d="M895 1491 c-18 -31 77 -64 252 -87 166 -22 548 -22 710 0 167 23 243
47 243 77 0 24 -40 25 -101 4 -102 -36 -227 -48 -494 -49 -268 0 -405 13 -506
48 -50 18 -95 21 -104 7z"/>
<path d="M337 1292 c-11 -12 -17 -36 -17 -64 0 -65 27 -88 107 -88 55 0 64 3
82 26 26 33 26 44 1 44 -11 0 -20 -7 -20 -15 0 -13 -12 -15 -67 -13 l-68 3 -3
33 c-5 48 12 62 74 62 43 0 55 -4 64 -20 13 -25 30 -26 30 -2 0 36 -32 52
-102 52 -50 0 -69 -4 -81 -18z"/>
<path d="M585 1290 c-23 -25 -26 -145 -4 -145 8 0 15 12 17 28 3 27 4 27 73
27 l69 0 0 -30 c0 -20 5 -30 15 -30 24 0 21 131 -3 153 -28 26 -143 24 -167
-3z m153 -37 c3 -22 0 -23 -73 -23 -42 0 -74 3 -72 8 2 4 7 15 10 25 6 15 17
17 69 15 57 -3 63 -5 66 -25z"/>
<path d="M812 1228 c2 -54 7 -83 16 -86 7 -2 12 5 12 17 0 19 6 21 64 21 56 0
66 -3 71 -20 3 -11 12 -20 19 -20 22 0 27 13 11 30 -14 15 -14 18 0 30 21 17
19 73 -3 93 -14 13 -39 17 -106 17 l-87 0 3 -82z m173 17 l0 -30 -72 -3 -73
-3 0 36 0 36 73 -3 72 -3 0 -30z"/>
<path d="M1170 1225 c0 -69 3 -85 15 -85 8 0 15 9 15 20 0 18 7 20 60 20 49 0
61 -3 70 -20 12 -22 40 -27 40 -7 0 7 -6 19 -12 26 -11 10 -10 14 5 22 23 13
23 71 -1 92 -14 13 -39 17 -105 17 l-87 0 0 -85z m173 33 c20 -31 -8 -48 -79
-48 l-64 0 0 35 0 36 66 -3 c49 -2 70 -7 77 -20z"/>
<path d="M1437 1292 c-27 -29 -23 -103 7 -131 21 -19 32 -22 102 -19 62 2 79
6 79 18 0 12 -18 16 -84 20 -55 3 -86 9 -89 18 -3 9 17 12 77 12 65 0 81 3 81
15 0 12 -16 15 -80 15 -44 0 -80 4 -80 9 0 23 33 32 102 30 57 -2 73 1 73 12
0 11 -20 15 -86 17 -73 2 -88 0 -102 -16z"/>
<path d="M1664 1297 c-3 -8 -4 -45 -2 -83 2 -53 6 -69 18 -69 12 0 15 14 15
65 l0 65 54 3 c73 4 93 -14 90 -83 -3 -40 0 -51 14 -53 14 -3 17 5 17 55 0 52
-4 63 -28 86 -25 24 -36 27 -100 27 -52 0 -74 -4 -78 -13z"/>
<path d="M1910 1289 c0 -19 5 -21 53 -17 l52 3 0 -65 c0 -53 3 -65 18 -68 15
-3 17 5 17 65 l0 69 52 -1 c42 0 53 3 56 18 3 15 -8 17 -122 17 -121 0 -126
-1 -126 -21z"/>
<path d="M2212 1287 c-18 -19 -22 -35 -22 -86 0 -54 2 -62 18 -59 12 2 16 11
14 31 l-3 27 75 0 76 0 0 -30 c0 -20 5 -30 15 -30 12 0 15 14 15 65 0 86 -19
105 -105 105 -51 0 -65 -4 -83 -23z m156 -34 c3 -22 0 -23 -72 -23 -56 0 -76
3 -76 13 0 28 25 38 85 35 54 -3 60 -5 63 -25z"/>
<path d="M2440 1247 c0 -90 18 -105 123 -106 70 -1 77 1 77 19 0 17 -8 19 -82
22 l-83 3 -1 60 c-1 47 -5 61 -18 63 -13 3 -16 -6 -16 -61z"/>
<path d="M2314 1160 c-19 -7 -62 -60 -49 -60 13 0 57 34 66 51 5 11 8 19 7 18
-2 0 -12 -4 -24 -9z"/>
<path d="M630 1152 c0 -9 36 -44 58 -56 21 -12 13 10 -14 38 -27 26 -44 33
-44 18z"/>
<path d="M2152 1135 c-12 -15 -20 -30 -17 -33 9 -9 48 35 43 49 -3 8 -12 2
-26 -16z"/>
<path d="M710 1083 c0 -1 10 -23 22 -48 19 -38 27 -45 51 -45 16 0 27 3 25 8
-2 4 -9 23 -17 44 -12 30 -20 37 -48 40 -18 2 -33 3 -33 1z"/>
<path d="M360 1066 c0 -7 5 -27 11 -45 9 -25 16 -31 40 -31 33 0 33 0 17 37
-20 45 -68 73 -68 39z"/>
<path d="M445 1065 c26 -74 27 -75 56 -75 16 0 29 3 28 8 -2 22 -18 47 -30 47
-8 0 -13 8 -13 18 2 20 -12 23 -19 5 -4 -10 -8 -9 -17 2 -10 12 -11 12 -5 -5z"/>
<path d="M570 1070 c0 -5 -7 -10 -16 -10 -11 0 -14 -5 -9 -17 4 -10 10 -26 12
-35 4 -12 15 -18 34 -18 33 0 38 19 13 45 -9 8 -13 22 -10 30 3 9 0 15 -9 15
-8 0 -15 -4 -15 -10z"/>
<path d="M815 1063 c4 -10 12 -30 17 -45 8 -22 16 -28 39 -28 34 0 34 -2 13
50 -14 34 -20 40 -46 40 -25 0 -29 -3 -23 -17z"/>
<path d="M900 1071 c0 -6 4 -12 9 -16 5 -3 12 -19 16 -35 5 -25 11 -30 36 -30
33 0 35 4 14 54 -13 30 -20 36 -45 36 -17 0 -30 -4 -30 -9z"/>
<path d="M1010 1038 c15 -35 25 -44 48 -46 l30 -3 -16 45 c-15 42 -20 46 -49
46 l-32 0 19 -42z"/>
<path d="M1100 1038 c16 -36 24 -44 51 -46 17 -2 30 0 28 5 -2 4 -11 25 -19
46 -12 32 -18 37 -47 37 l-32 0 19 -42z"/>
<path d="M1185 1063 c4 -10 12 -30 17 -45 8 -22 16 -28 39 -28 34 0 34 -2 13
50 -14 34 -20 40 -46 40 -25 0 -29 -3 -23 -17z"/>
<path d="M1272 1073 c2 -5 10 -25 18 -45 11 -31 19 -38 42 -38 32 0 33 5 13
54 -13 30 -20 36 -46 36 -17 0 -29 -3 -27 -7z"/>
<path d="M1360 1077 c0 -2 9 -22 20 -45 17 -35 25 -42 49 -42 l29 0 -17 45
c-14 41 -19 45 -48 45 -18 0 -33 -1 -33 -3z"/>
<path d="M1470 1038 c16 -36 24 -44 51 -46 17 -2 30 0 28 5 -2 4 -11 25 -19
46 -12 32 -18 37 -47 37 l-32 0 19 -42z"/>
<path d="M1550 1075 c0 -2 7 -23 16 -45 14 -34 20 -40 46 -40 25 0 29 3 23 18
-4 9 -12 29 -17 45 -8 21 -16 27 -39 27 -16 0 -29 -2 -29 -5z"/>
<path d="M1642 1073 c2 -5 10 -25 18 -45 11 -31 19 -38 42 -38 32 0 33 5 13
54 -13 30 -20 36 -46 36 -17 0 -29 -3 -27 -7z"/>
<path d="M1730 1075 c0 -3 9 -24 20 -45 17 -33 26 -40 50 -40 l31 0 -16 30
c-8 16 -15 36 -15 45 0 11 -10 15 -35 15 -19 0 -35 -2 -35 -5z"/>
<path d="M1840 1038 c15 -35 24 -44 49 -46 l30 -3 -16 45 c-16 42 -20 46 -50
46 l-32 0 19 -42z"/>
<path d="M1920 1070 c0 -5 8 -25 17 -45 13 -28 22 -35 46 -35 24 0 28 3 22 18
-4 9 -12 29 -17 45 -8 21 -16 27 -39 27 -16 0 -29 -4 -29 -10z"/>
<path d="M2012 1073 c2 -5 10 -25 18 -45 11 -31 19 -38 42 -38 33 0 32 -2 12
50 -14 34 -21 40 -46 40 -16 0 -28 -3 -26 -7z"/>
<path d="M2102 1073 c2 -5 10 -25 18 -45 11 -31 19 -38 42 -38 32 0 33 5 13
54 -13 30 -20 36 -46 36 -17 0 -29 -3 -27 -7z"/>
<path d="M2210 1038 c15 -35 24 -44 49 -46 l30 -3 -16 45 c-16 42 -20 46 -50
46 l-32 0 19 -42z"/>
<path d="M2290 1070 c0 -5 8 -25 17 -45 13 -28 22 -35 46 -35 24 0 28 3 22 18
-4 9 -12 29 -17 45 -8 21 -16 27 -39 27 -16 0 -29 -4 -29 -10z"/>
<path d="M2385 1063 c4 -10 12 -30 17 -45 8 -22 16 -28 39 -28 34 0 34 -2 13
50 -14 34 -20 40 -46 40 -25 0 -29 -3 -23 -17z"/>
<path d="M2472 1073 c2 -5 10 -25 18 -45 11 -31 19 -38 42 -38 32 0 33 5 13
54 -13 30 -20 36 -46 36 -17 0 -29 -3 -27 -7z"/>
<path d="M2579 1038 c21 -51 46 -61 54 -22 9 46 -2 64 -39 64 l-33 0 18 -42z"/>
<path d="M635 1060 c-3 -5 2 -10 12 -10 14 0 15 -2 4 -9 -23 -15 4 -51 39 -51
28 0 29 2 20 26 -18 46 -59 70 -75 44z"/>
<path d="M407 952 c-20 -2 -32 -13 -47 -42 -11 -22 -20 -42 -20 -45 0 -3 16
-5 35 -5 19 0 35 5 35 11 0 6 7 26 16 45 19 40 19 41 -19 36z"/>
<path d="M499 952 c-18 -2 -31 -13 -42 -38 -23 -47 -22 -54 12 -54 24 0 31 6
46 46 9 25 16 46 14 47 -2 1 -16 1 -30 -1z"/>
<path d="M588 952 c-18 -2 -30 -12 -36 -30 -6 -15 -13 -35 -17 -44 -6 -15 -2
-18 24 -18 25 0 33 5 41 28 6 15 14 35 20 44 11 20 4 25 -32 20z"/>
<path d="M679 952 c-19 -2 -29 -13 -40 -40 -7 -20 -16 -41 -18 -45 -2 -5 11
-7 28 -5 27 2 35 10 51 45 20 46 18 50 -21 45z"/>
<path d="M869 952 c-18 -2 -31 -13 -42 -38 -23 -47 -22 -54 12 -54 24 0 31 6
46 46 9 25 16 46 14 47 -2 1 -16 1 -30 -1z"/>
<path d="M959 953 c-18 -3 -29 -14 -40 -41 -7 -20 -15 -40 -17 -44 -2 -5 10
-8 27 -8 21 0 33 6 37 18 3 9 12 29 20 44 16 29 17 39 7 37 -5 -1 -20 -4 -34
-6z"/>
<path d="M1049 952 c-19 -2 -29 -13 -40 -40 -7 -20 -16 -41 -18 -45 -2 -5 12
-7 30 -5 27 3 35 9 50 45 19 46 17 50 -22 45z"/>
<path d="M1147 951 c-46 -10 -78 -91 -34 -91 20 0 63 19 44 20 -4 0 0 16 8 37
8 20 14 37 13 38 -2 1 -15 -1 -31 -4z"/>
<path d="M1237 951 c-21 -5 -33 -17 -47 -48 l-18 -41 31 -6 c18 -4 43 -8 57
-10 16 -2 17 -2 3 1 -27 5 -28 10 -7 63 9 23 15 42 13 44 -2 1 -17 0 -32 -3z"/>
<path d="M1329 952 c-39 -5 -66 -73 -34 -86 8 -3 15 -1 15 5 0 6 5 7 10 4 10
-6 44 60 38 73 -2 4 -15 6 -29 4z"/>
<path d="M1419 952 c-20 -2 -30 -13 -42 -42 -17 -45 -6 -56 31 -32 25 16 56
69 44 74 -4 2 -19 2 -33 0z"/>
<path d="M1607 952 c-20 -3 -31 -12 -42 -39 -20 -47 -20 -48 14 -51 25 -2 30
3 46 44 9 25 16 46 14 47 -2 1 -16 1 -32 -1z"/>
<path d="M1698 952 c-20 -2 -30 -12 -42 -43 -20 -50 -21 -47 15 -45 27 1 33 7
46 45 8 23 13 44 11 45 -2 1 -15 0 -30 -2z"/>
<path d="M1789 952 c-19 -2 -29 -12 -38 -39 -7 -19 -22 -44 -34 -56 -19 -19
-19 -20 -1 -12 10 4 32 10 47 14 21 4 33 17 47 48 20 46 18 50 -21 45z"/>
<path d="M1944 942 c-3 -9 -10 -27 -15 -40 -14 -36 -11 -42 20 -42 25 0 31 5
36 30 4 16 11 32 16 35 20 13 8 32 -22 33 -20 0 -32 -5 -35 -16z"/>
<path d="M2159 952 c-19 -2 -29 -13 -40 -40 -7 -20 -16 -41 -18 -45 -2 -5 11
-7 28 -5 27 2 35 10 51 45 20 46 18 50 -21 45z"/>
<path d="M2249 952 c-19 -2 -29 -13 -40 -40 -7 -20 -15 -40 -17 -44 -2 -5 12
-8 32 -8 26 0 36 4 36 15 0 9 7 29 15 45 17 32 12 37 -26 32z"/>
<path d="M2347 952 c-20 -3 -31 -12 -42 -39 -20 -48 -19 -53 13 -53 23 0 30 7
46 46 10 25 17 46 15 47 -2 1 -16 1 -32 -1z"/>
<path d="M2439 952 c-18 -2 -31 -13 -42 -38 -23 -47 -22 -54 12 -54 24 0 31 6
46 46 9 25 16 46 14 47 -2 1 -16 1 -30 -1z"/>
<path d="M2528 952 c-18 -2 -30 -12 -36 -30 -6 -15 -13 -35 -17 -44 -6 -15 -2
-18 24 -18 25 0 33 5 41 28 6 15 14 35 20 44 11 20 4 25 -32 20z"/>
<path d="M740 924 c-6 -14 -15 -34 -20 -45 -10 -17 -7 -19 24 -19 30 0 35 4
41 30 4 16 11 32 16 35 19 12 8 25 -21 25 -24 0 -33 -6 -40 -26z"/>
<path d="M1472 911 c-15 -47 -15 -51 -1 -51 5 0 7 5 3 11 -4 8 0 7 15 -1 20
-10 23 -8 37 27 9 21 18 41 21 46 2 4 -11 7 -30 7 -31 0 -35 -4 -45 -39z"/>
<path d="M1841 911 c-23 -43 -20 -51 20 -51 22 0 29 6 34 30 4 16 11 32 16 35
19 12 8 25 -21 25 -24 0 -33 -7 -49 -39z"/>
<path d="M2027 912 c-22 -51 -22 -52 12 -52 23 0 31 6 39 28 5 15 13 35 17 45
6 14 2 17 -22 17 -24 0 -32 -7 -46 -38z"/>
<path d="M2580 913 c-8 -21 -16 -41 -18 -45 -2 -5 12 -8 30 -8 29 0 36 5 46
33 18 49 15 57 -16 57 -23 0 -31 -7 -42 -37z"/>
</g>
</svg>
